<svg xmlns="http://www.w3.org/2000/svg" viewBox="0 0 380 100" width="380" height="100">
  <defs>
    <linearGradient id="notekeepYellowGradFull" x1="0" y1="0" x2="0" y2="1">
      <stop offset="0%" stop-color="#ffcc24" />
      <stop offset="100%" stop-color="#f5a518" />
    </linearGradient>
    <filter id="softShadowFull" x="-10%" y="-10%" width="130%" height="130%">
      <feDropShadow dx="0" dy="2" stdDeviation="2" flood-color="#c97d00" flood-opacity="0.25" />
    </filter>
  </defs>

  <!-- Squircle Icon -->
  <rect x="5" y="5" width="90" height="90" rx="25" fill="url(#notekeepYellowGradFull)" />

  <!-- Folha de Papel com Canto Dobrado -->
  <g filter="url(#softShadowFull)">
    <path d="M 30 22 
             L 58 22 
             L 73 37 
             L 73 71 
             C 73 75 69.5 78 65.5 78 
             L 30 78 
             C 26 78 22.5 75 22.5 71 
             L 22.5 29.5 
             C 22.5 25.5 26 22 30 22 Z" 
          fill="#fff9e8" />
    
    <!-- Canto Dobrado -->
    <path d="M 58 22 
             L 58 33.5 
             C 58 35.5 59.5 37 61.5 37 
             L 73 37 Z" 
          fill="#e59e10" />
  </g>

  <!-- Três Linhas Horizontais Arredondadas -->
  <rect x="31" y="45" width="21" height="5" rx="2.5" fill="#f5a518" />
  <rect x="31" y="54" width="34" height="5" rx="2.5" fill="#f5a518" />
  <rect x="31" y="63" width="24" height="5" rx="2.5" fill="#f5a518" />

  <!-- Texto NoteKeep -->
  <text x="115" y="69" font-family="'Google Sans', 'Poppins', 'Outfit', system-ui, sans-serif" font-weight="800" font-size="52" letter-spacing="-1.5">
    <tspan fill="#22272e">Note</tspan><tspan fill="#f5a518">Keep</tspan>
  </text>
</svg>
